<svg width="52" height="52" viewBox="0 0 52 52" fill="none" xmlns="http://www.w3.org/2000/svg">
<circle cx="26" cy="26" r="26" fill="#A6EAFF"/>
<path d="M18.2996 25.8C18.8163 24.0333 19.7873 22.3457 21.2126 20.737C22.6379 19.1283 24.0169 17.741 25.3496 16.575C25.5329 16.4083 25.7496 16.325 25.9996 16.325C26.2496 16.325 26.4663 16.4083 26.6496 16.575C27.9829 17.7417 29.3623 19.1293 30.7876 20.738C32.2129 22.3467 33.1836 24.034 33.6996 25.8H31.5996C31.2163 24.7667 30.5579 23.654 29.6246 22.462C28.6913 21.27 27.4829 19.9993 25.9996 18.65C24.5329 20 23.3286 21.271 22.3866 22.463C21.4446 23.655 20.7823 24.7673 20.3996 25.8H18.2996ZM33.8496 29.45C33.6996 30.2667 33.4369 31.0377 33.0616 31.763C32.6863 32.4883 32.2073 33.1423 31.6246 33.725C31.0413 34.3083 30.3869 34.7833 29.6616 35.15C28.9363 35.5167 28.1739 35.7667 27.3746 35.9L33.8496 29.45ZM29.7746 27.8H32.6246L24.5246 35.9C24.1413 35.8167 23.7703 35.721 23.4116 35.613C23.0529 35.505 22.7073 35.359 22.3746 35.175L29.7746 27.8ZM24.0496 27.8H26.8996L20.6746 34.025C20.4246 33.7917 20.1873 33.55 19.9626 33.3C19.7379 33.05 19.5336 32.7833 19.3496 32.5L24.0496 27.8ZM17.9746 27.8H21.1496L18.3996 30.55C18.2663 30.1 18.1663 29.6457 18.0996 29.187C18.0329 28.7283 17.9913 28.266 17.9746 27.8Z" fill="#02A0D2"/>
</svg>
