<svg width="52" height="52" viewBox="0 0 52 52" fill="none" xmlns="http://www.w3.org/2000/svg">
<circle cx="26" cy="26" r="26" fill="#FFB4B4"/>
<path d="M26.7204 24.8C26.2404 24.68 25.7604 24.44 25.4004 24.08C25.0404 23.96 24.9204 23.6 24.9204 23.36C24.9204 23.12 25.0404 22.76 25.2804 22.64C25.6404 22.4 26.0004 22.16 26.3604 22.28C27.0804 22.28 27.6804 22.64 28.0404 23.12L29.1204 21.68C28.7604 21.32 28.4004 21.08 28.0404 20.84C27.6804 20.6 27.2004 20.48 26.7204 20.48V18.8H25.2804V20.48C24.6804 20.6 24.0804 20.96 23.6004 21.44C23.1204 22.04 22.7604 22.76 22.8804 23.48C22.8804 24.2 23.1204 24.92 23.6004 25.4C24.2004 26 25.0404 26.36 25.7604 26.72C26.1204 26.84 26.6004 27.08 26.9604 27.32C27.2004 27.56 27.3204 27.92 27.3204 28.28C27.3204 28.64 27.2004 29 26.9604 29.36C26.6004 29.72 26.1204 29.84 25.7604 29.84C25.2804 29.84 24.6804 29.72 24.3204 29.36C23.9604 29.12 23.6004 28.76 23.3604 28.4L22.1604 29.72C22.5204 30.2 22.8804 30.56 23.3604 30.92C23.9604 31.28 24.6804 31.64 25.4004 31.64V33.2H26.7204V31.4C27.4404 31.28 28.0404 30.92 28.5204 30.44C29.1204 29.84 29.4804 28.88 29.4804 28.04C29.4804 27.32 29.2404 26.48 28.6404 26C28.0404 25.4 27.4404 25.04 26.7204 24.8ZM26.0004 16.4C20.7204 16.4 16.4004 20.72 16.4004 26C16.4004 31.28 20.7204 35.6 26.0004 35.6C31.2804 35.6 35.6004 31.28 35.6004 26C35.6004 20.72 31.2804 16.4 26.0004 16.4ZM26.0004 34.28C21.4404 34.28 17.7204 30.56 17.7204 26C17.7204 21.44 21.4404 17.72 26.0004 17.72C30.5604 17.72 34.2804 21.44 34.2804 26C34.2804 30.56 30.5604 34.28 26.0004 34.28Z" fill="#CA0000"/>
</svg>
