<svg width="52" height="52" viewBox="0 0 52 52" fill="none" xmlns="http://www.w3.org/2000/svg">
<circle cx="26" cy="26" r="26" fill="#C3FFC5"/>
<path d="M36 30.1895L30.4329 35.6387L27.7443 33.002L28.6439 32.123L30.4329 33.8613L35.1005 29.3105L36 30.1895ZM25.9553 22.25H22.1173V21H25.9553V22.25ZM25.9553 24.75H22.1173V23.5H25.9553V24.75ZM22.1173 26H25.9553V27.25H22.1173V26ZM20.838 22.25H19.5587V21H20.838V22.25ZM20.838 24.75H19.5587V23.5H20.838V24.75ZM19.5587 26H20.838V27.25H19.5587V26ZM27.2346 22.25V17.25H18.2793V34.75H27.2346V36H17V16H28.1441L33.6312 21.3613V28.5L32.3519 29.75V22.25H27.2346ZM28.5139 21H31.4424L28.5139 18.1387V21Z" fill="#00BD08"/>
</svg>
