<svg width="52" height="52" viewBox="0 0 52 52" fill="none" xmlns="http://www.w3.org/2000/svg">
<circle cx="26" cy="26" r="26" fill="#FEB5FF"/>
<path d="M19 35C18.45 35 17.979 34.804 17.587 34.412C17.195 34.02 16.9993 33.5493 17 33V19C17 18.45 17.196 17.979 17.588 17.587C17.98 17.195 18.4507 16.9993 19 17H33C33.55 17 34.021 17.196 34.413 17.588C34.805 17.98 35.0007 18.4507 35 19V21.5H33V19H19V33H33V30.5H35V33C35 33.55 34.804 34.021 34.412 34.413C34.02 34.805 33.5493 35.0007 33 35H19ZM27 31C26.45 31 25.979 30.804 25.587 30.412C25.195 30.02 24.9993 29.5493 25 29V23C25 22.45 25.196 21.979 25.588 21.587C25.98 21.195 26.4507 20.9993 27 21H34C34.55 21 35.021 21.196 35.413 21.588C35.805 21.98 36.0007 22.4507 36 23V29C36 29.55 35.804 30.021 35.412 30.413C35.02 30.805 34.5493 31.0007 34 31H27ZM34 29V23H27V29H34ZM30 27.5C30.4167 27.5 30.771 27.354 31.063 27.062C31.355 26.77 31.5007 26.416 31.5 26C31.5 25.5833 31.354 25.229 31.062 24.937C30.77 24.645 30.416 24.4993 30 24.5C29.5833 24.5 29.229 24.646 28.937 24.938C28.645 25.23 28.4993 25.584 28.5 26C28.5 26.4167 28.646 26.771 28.938 27.063C29.23 27.355 29.584 27.5007 30 27.5Z" fill="#B400B8"/>
</svg>
